G04*
G04 #@! TF.GenerationSoftware,Altium Limited,Altium Designer,20.2.5 (213)*
G04*
G04 Layer_Color=65535*
%FSLAX44Y44*%
%MOMM*%
G71*
G04*
G04 #@! TF.SameCoordinates,6BA0CD60-F345-4307-9950-861CB7B1D5B9*
G04*
G04*
G04 #@! TF.FilePolarity,Positive*
G04*
G01*
G75*
%ADD10C,0.2540*%
%ADD11C,0.2500*%
%ADD12C,0.2000*%
%ADD13C,0.2032*%
%ADD14C,0.1270*%
%ADD15C,0.1000*%
%ADD16C,0.1524*%
%ADD17C,0.1540*%
%ADD18C,0.0762*%
%ADD19R,2.5303X2.5400*%
%ADD20R,2.5400X2.5303*%
%ADD21R,2.5303X2.5400*%
G36*
X320494Y207412D02*
X324304D01*
Y204872D01*
X320494D01*
Y207412D01*
D02*
G37*
G36*
X293751Y249155D02*
X291211D01*
Y252965D01*
X293751D01*
Y249155D01*
D02*
G37*
G36*
X325494Y289708D02*
X329304D01*
Y292248D01*
X325494D01*
Y289708D01*
D02*
G37*
G36*
X376047Y264155D02*
X378587D01*
Y267965D01*
X376047D01*
Y264155D01*
D02*
G37*
D10*
X276206Y427990D02*
G03*
X276206Y427990I-10776J0D01*
G01*
Y21590D02*
G03*
X276206Y21590I-10776J0D01*
G01*
X6350Y8255D02*
X186690D01*
X6350D02*
Y438785D01*
X186690D01*
Y8255D02*
Y438785D01*
X232410Y92952D02*
X242567D01*
X237488D01*
Y77716D01*
X247645Y87873D02*
Y77716D01*
Y82795D01*
X250184Y85334D01*
X252723Y87873D01*
X255263D01*
X265419D02*
X270498D01*
X273037Y85334D01*
Y77716D01*
X265419D01*
X262880Y80256D01*
X265419Y82795D01*
X273037D01*
X288272Y87873D02*
X280654D01*
X278115Y85334D01*
Y80256D01*
X280654Y77716D01*
X288272D01*
X295889Y90412D02*
Y87873D01*
X293350D01*
X298429D01*
X295889D01*
Y80256D01*
X298429Y77716D01*
X306046D02*
X311124D01*
X308585D01*
Y87873D01*
X306046D01*
X321281D02*
X326360D01*
X328899Y85334D01*
Y77716D01*
X321281D01*
X318742Y80256D01*
X321281Y82795D01*
X328899D01*
X333977Y77716D02*
Y87873D01*
X341595D01*
X344134Y85334D01*
Y77716D01*
X374604Y90412D02*
X372065Y92952D01*
X366987D01*
X364447Y90412D01*
Y80256D01*
X366987Y77716D01*
X372065D01*
X374604Y80256D01*
X379682Y92952D02*
Y77716D01*
Y85334D01*
X382221Y87873D01*
X387300D01*
X389839Y85334D01*
Y77716D01*
X397457Y87873D02*
X402535D01*
X405074Y85334D01*
Y77716D01*
X397457D01*
X394917Y80256D01*
X397457Y82795D01*
X405074D01*
X415231Y72638D02*
X417770D01*
X420309Y75177D01*
Y87873D01*
X412692D01*
X410153Y85334D01*
Y80256D01*
X412692Y77716D01*
X420309D01*
X433005D02*
X427927D01*
X425388Y80256D01*
Y85334D01*
X427927Y87873D01*
X433005D01*
X435544Y85334D01*
Y82795D01*
X425388D01*
X440623Y77716D02*
X445701D01*
X443162D01*
Y92952D01*
X440623D01*
X453318Y77716D02*
X458397D01*
X455858D01*
Y92952D01*
X453318D01*
X473632Y77716D02*
X468554D01*
X466014Y80256D01*
Y85334D01*
X468554Y87873D01*
X473632D01*
X476171Y85334D01*
Y82795D01*
X466014D01*
X481250Y77716D02*
Y87873D01*
X488867D01*
X491406Y85334D01*
Y77716D01*
X501563Y72638D02*
X504102D01*
X506641Y75177D01*
Y87873D01*
X499024D01*
X496485Y85334D01*
Y80256D01*
X499024Y77716D01*
X506641D01*
X519337D02*
X514259D01*
X511720Y80256D01*
Y85334D01*
X514259Y87873D01*
X519337D01*
X521876Y85334D01*
Y82795D01*
X511720D01*
X232410Y58417D02*
X237488Y48260D01*
X242567Y58417D01*
X247645Y48260D02*
X252723D01*
X250184D01*
Y63495D01*
X247645Y60956D01*
X260341Y48260D02*
Y50799D01*
X262880D01*
Y48260D01*
X260341D01*
X273037Y60956D02*
X275576Y63495D01*
X280654D01*
X283194Y60956D01*
Y50799D01*
X280654Y48260D01*
X275576D01*
X273037Y50799D01*
Y60956D01*
X193040Y43178D02*
X203197D01*
X198118Y48257D02*
Y38100D01*
X194310Y415290D02*
X204467D01*
D11*
X225470Y169130D02*
G03*
X225470Y169130I-1250J0D01*
G01*
D12*
X463590Y204060D02*
G03*
X463590Y204060I-1000J0D01*
G01*
X239220Y136130D02*
Y166130D01*
X233220Y136130D02*
Y166130D01*
Y136130D02*
X239220D01*
X233220Y166130D02*
X239220D01*
X391470Y233060D02*
X398470D01*
D13*
X280670Y138430D02*
Y163830D01*
Y138430D02*
Y163830D01*
X331470Y138430D02*
Y163830D01*
X306070Y138430D02*
Y163830D01*
X280670Y163830D02*
X356870Y163830D01*
X280670Y138430D02*
X356870Y138430D01*
X356870Y163830D02*
X356870Y138430D01*
X325120Y313690D02*
Y364490D01*
X299720Y313690D02*
Y364490D01*
Y313690D02*
X325120Y313690D01*
X299720Y364490D02*
X325120D01*
X299720Y339090D02*
X325120D01*
X379730Y372110D02*
X430530D01*
X379730Y397510D02*
X430530D01*
X379730D02*
X379730Y372110D01*
X430530Y372110D02*
Y397510D01*
X405130Y372110D02*
Y397510D01*
D14*
X409702Y243078D02*
Y254762D01*
X384048Y243078D02*
Y254762D01*
X409702D01*
X384048Y243078D02*
X409702D01*
Y258318D02*
Y270002D01*
X384048Y258318D02*
Y270002D01*
X409702D01*
X384048Y258318D02*
X409702D01*
X432562Y220218D02*
Y231902D01*
X406908Y220218D02*
Y231902D01*
X432562D01*
X406908Y220218D02*
X432562D01*
X282448Y202692D02*
X308102D01*
X282448Y191008D02*
X308102D01*
Y202692D01*
X282448Y191008D02*
Y202692D01*
Y187452D02*
X308102D01*
X282448Y175768D02*
X308102D01*
Y187452D01*
X282448Y175768D02*
Y187452D01*
X408432Y302118D02*
Y313802D01*
X382778Y302118D02*
Y313802D01*
X408432D01*
X382778Y302118D02*
X408432D01*
X340868Y302768D02*
Y314452D01*
X366522Y302768D02*
Y314452D01*
X340868Y302768D02*
X366522D01*
X340868Y314452D02*
X366522D01*
X400558Y297942D02*
X412242D01*
X400558Y272288D02*
X412242D01*
X400558D02*
Y297942D01*
X412242Y272288D02*
Y297942D01*
X415798Y294132D02*
X427482D01*
X415798Y268478D02*
X427482D01*
X415798D02*
Y294132D01*
X427482Y268478D02*
Y294132D01*
X471290Y177560D02*
X523590D01*
Y218510D02*
Y295610D01*
X471290Y238560D02*
Y315060D01*
X498890D01*
X523590Y177560D02*
Y189610D01*
X471290Y177560D02*
Y194860D01*
X438658Y206248D02*
Y231902D01*
X450342Y206248D02*
Y231902D01*
X438658D02*
X450342D01*
X438658Y206248D02*
X450342D01*
D15*
X396240Y320040D02*
Y340360D01*
X393700Y342900D02*
X396240Y340360D01*
X353060Y342900D02*
X393700D01*
X353060Y320040D02*
Y342900D01*
Y320040D02*
X396240D01*
D16*
X298069Y211730D02*
Y216463D01*
Y285390D02*
X302802D01*
X371729Y280658D02*
Y285390D01*
Y211730D02*
Y216463D01*
X298069Y211730D02*
X302802D01*
X298069Y280658D02*
Y285390D01*
X366996D02*
X371729D01*
X366996Y211730D02*
X371729D01*
D17*
X193487Y438459D02*
Y430221D01*
X197606D01*
X198979Y431594D01*
Y432967D01*
X197606Y434340D01*
X193487D01*
X197606D01*
X198979Y435713D01*
Y437086D01*
X197606Y438459D01*
X193487D01*
X201724Y430221D02*
Y435713D01*
X204470Y438459D01*
X207216Y435713D01*
Y430221D01*
Y434340D01*
X201724D01*
X209962Y438459D02*
X215453D01*
X212707D01*
Y430221D01*
X263851Y147629D02*
X261106D01*
X262479D01*
Y140764D01*
X261106Y139391D01*
X259733D01*
X258360Y140764D01*
X266597Y139391D02*
Y147629D01*
X270716D01*
X272089Y146256D01*
Y143510D01*
X270716Y142137D01*
X266597D01*
X274834Y139391D02*
X277580D01*
X276207D01*
Y147629D01*
X274834Y146256D01*
X418997Y249126D02*
X417624Y250499D01*
X414879D01*
X413506Y249126D01*
Y243634D01*
X414879Y242261D01*
X417624D01*
X418997Y243634D01*
X421743Y249126D02*
X423116Y250499D01*
X425862D01*
X427234Y249126D01*
Y247753D01*
X425862Y246380D01*
X424489D01*
X425862D01*
X427234Y245007D01*
Y243634D01*
X425862Y242261D01*
X423116D01*
X421743Y243634D01*
X417727Y263096D02*
X416354Y264469D01*
X413609D01*
X412236Y263096D01*
Y257604D01*
X413609Y256231D01*
X416354D01*
X417727Y257604D01*
X424592Y256231D02*
Y264469D01*
X420473Y260350D01*
X425965D01*
X420370Y216106D02*
X418997Y217479D01*
X416251D01*
X414879Y216106D01*
Y210614D01*
X416251Y209241D01*
X418997D01*
X420370Y210614D01*
X423116Y209241D02*
X425862D01*
X424489D01*
Y217479D01*
X423116Y216106D01*
X269137Y199596D02*
X267764Y200969D01*
X265019D01*
X263646Y199596D01*
Y194104D01*
X265019Y192731D01*
X267764D01*
X269137Y194104D01*
X271883D02*
X273256Y192731D01*
X276002D01*
X277374Y194104D01*
Y199596D01*
X276002Y200969D01*
X273256D01*
X271883Y199596D01*
Y198223D01*
X273256Y196850D01*
X277374D01*
X269137Y184356D02*
X267764Y185729D01*
X265019D01*
X263646Y184356D01*
Y178864D01*
X265019Y177491D01*
X267764D01*
X269137Y178864D01*
X271883Y184356D02*
X273256Y185729D01*
X276002D01*
X277374Y184356D01*
Y182983D01*
X276002Y181610D01*
X277374Y180237D01*
Y178864D01*
X276002Y177491D01*
X273256D01*
X271883Y178864D01*
Y180237D01*
X273256Y181610D01*
X271883Y182983D01*
Y184356D01*
X273256Y181610D02*
X276002D01*
X405027Y327866D02*
X403654Y329239D01*
X400909D01*
X399536Y327866D01*
Y322374D01*
X400909Y321001D01*
X403654D01*
X405027Y322374D01*
X413265Y329239D02*
X407773D01*
Y325120D01*
X410519Y326493D01*
X411892D01*
X413265Y325120D01*
Y322374D01*
X411892Y321001D01*
X409146D01*
X407773Y322374D01*
X341527Y327866D02*
X340154Y329239D01*
X337408D01*
X336036Y327866D01*
Y322374D01*
X337408Y321001D01*
X340154D01*
X341527Y322374D01*
X349765Y329239D02*
X347019Y327866D01*
X344273Y325120D01*
Y322374D01*
X345646Y321001D01*
X348392D01*
X349765Y322374D01*
Y323747D01*
X348392Y325120D01*
X344273D01*
X413609Y299411D02*
Y307649D01*
X417727D01*
X419100Y306276D01*
Y303530D01*
X417727Y302157D01*
X413609D01*
X416354D02*
X419100Y299411D01*
X421846D02*
X424592D01*
X423219D01*
Y307649D01*
X421846Y306276D01*
X437086Y282043D02*
X438459Y283416D01*
Y286162D01*
X437086Y287535D01*
X431594D01*
X430221Y286162D01*
Y283416D01*
X431594Y282043D01*
X438459Y279297D02*
Y273806D01*
X437086D01*
X431594Y279297D01*
X430221D01*
X385730Y413367D02*
X382984D01*
X384357D01*
Y406503D01*
X382984Y405130D01*
X381611D01*
X380238Y406503D01*
X388475Y405130D02*
Y413367D01*
X392594D01*
X393967Y411995D01*
Y409249D01*
X392594Y407876D01*
X388475D01*
X396713Y411995D02*
X398086Y413367D01*
X400831D01*
X402204Y411995D01*
Y410622D01*
X400831Y409249D01*
X399458D01*
X400831D01*
X402204Y407876D01*
Y406503D01*
X400831Y405130D01*
X398086D01*
X396713Y406503D01*
X305720Y380347D02*
X302974D01*
X304347D01*
Y373483D01*
X302974Y372110D01*
X301601D01*
X300228Y373483D01*
X308465Y372110D02*
Y380347D01*
X312584D01*
X313957Y378974D01*
Y376229D01*
X312584Y374856D01*
X308465D01*
X322194Y372110D02*
X316703D01*
X322194Y377602D01*
Y378974D01*
X320821Y380347D01*
X318076D01*
X316703Y378974D01*
X218186Y186545D02*
Y178308D01*
X222305D01*
X223678Y179681D01*
Y185173D01*
X222305Y186545D01*
X218186D01*
X226423Y178308D02*
X229169D01*
X227796D01*
Y186545D01*
X226423Y185173D01*
X354076Y358249D02*
X359568Y350012D01*
Y358249D02*
X354076Y350012D01*
X362313D02*
X365059D01*
X363686D01*
Y358249D01*
X362313Y356876D01*
X291592Y308465D02*
X294338D01*
X292965D01*
Y300228D01*
X291592D01*
X294338D01*
X303948Y307092D02*
X302575Y308465D01*
X299829D01*
X298456Y307092D01*
Y301601D01*
X299829Y300228D01*
X302575D01*
X303948Y301601D01*
X306694Y300228D02*
X309440D01*
X308067D01*
Y308465D01*
X306694Y307092D01*
X390748Y204779D02*
Y196541D01*
X396240D01*
X398986D02*
X401732D01*
X400359D01*
Y204779D01*
X398986Y203406D01*
X444397Y202136D02*
X443024Y203509D01*
X440279D01*
X438906Y202136D01*
Y196644D01*
X440279Y195271D01*
X443024D01*
X444397Y196644D01*
X452635Y195271D02*
X447143D01*
X452635Y200763D01*
Y202136D01*
X451262Y203509D01*
X448516D01*
X447143Y202136D01*
D18*
X383032Y214330D02*
X374568Y222794D01*
X383032D02*
X374568Y214330D01*
X383032Y218562D02*
X374568D01*
X378800Y222794D02*
Y214330D01*
D19*
X344218Y151130D02*
D03*
D20*
X312420Y326342D02*
D03*
D21*
X392382Y384810D02*
D03*
M02*
